# xmcd
#
# Track frame offsets:
#	150
#	21917
#	33915
#	51835
#	63530
#	75422
#	88907
#	108520
#	136125
#	150877
#	161597
#	180272
#
# Disc length: 2708 seconds
#
# Revision: 0
# Processed by: cddbd v1.5.2PL0 Copyright (c) Steve Scherf et al.
# Submitted via: EasyCDDAExtractor 10.0.6.1
#
DISCID=890a920c
DTITLE=Various Artist - Golden Vine productions
DYEAR=1992
DGENRE=Gospel
TTITLE0=Chris Freeman - On The Wings Of An Angel
TTITLE1=The Sampsons - My New House
TTITLE2=The Gillys - Carry This Cross
TTITLE3=The Linkous Family - Leave It To Him
TTITLE4=Michael White - When Jesus Shall Appear
TTITLE5=Peaceful Hearts - I'll Be Gone
TTITLE6=Liberty - On My Father's Side
TTITLE7=Joe Penny - Growing Old Without God
TTITLE8=The Marshalls - When he Reminds Me Of My Past
TTITLE9=John and Leann - Holy GHost Revival
TTITLE10=Barbara Arnold - Quit Walk
TTITLE11=Gospel Truth - Gentle Hands
EXTD=
EXTT0=
EXTT1=
EXTT2=
EXTT3=
EXTT4=
EXTT5=
EXTT6=
EXTT7=
EXTT8=
EXTT9=
EXTT10=
EXTT11=
PLAYORDER=
